<svg width="25" height="25" viewBox="0 0 512 512" xmlns="http://www.w3.org/2000/svg"><path d="m512 256c0 141.386719-114.613281 256-256 256s-256-114.613281-256-256 114.613281-256 256-256 256 114.613281 256 256zm0 0" fill="#50a4d9"/><g fill="#fff"><path d="m448 208h32v32h-32zm0 0"/><path d="m448 272h32v32h-32zm0 0"/><path d="m211.519531 352 13.953125-69.742188 68.480469-27.394531-11.90625-29.726562-49.085937 19.648437 22.71875-113.648437-31.359376-6.273438-26.832031 134.097657-75.441406 30.175781 11.90625 29.726562 56.046875-22.429687-17.519531 87.566406h195.519531v-32zm0 0"/></g></svg>