<?xml version="1.0" encoding="utf-8"?>
<!-- Generator: Adobe Illustrator 23.0.6, SVG Export Plug-In . SVG Version: 6.00 Build 0)  -->
<svg version="1.1" xmlns="http://www.w3.org/2000/svg" xmlns:xlink="http://www.w3.org/1999/xlink" x="0px" y="0px"
	 viewBox="0 0 7.4 82.3" style="enable-background:new 0 0 7.4 82.3;" xml:space="preserve">
<style type="text/css">
	.st0{display:none;}
	.st1{display:inline;}
	.st2{fill:none;stroke:url(#SVGID_1_);stroke-width:2;stroke-miterlimit:10;}
	.st3{fill:url(#SVGID_2_);}
	.st4{fill:none;stroke:#FF5500;stroke-width:2;stroke-miterlimit:10;}
	.st5{fill:#FF5500;}
	.st6{display:inline;fill:none;stroke:url(#SVGID_3_);stroke-width:2;stroke-miterlimit:10;}
	.st7{fill:none;stroke:url(#SVGID_4_);stroke-width:2;stroke-miterlimit:10;}
	.st8{fill:#EBEDF0;stroke:url(#SVGID_5_);stroke-miterlimit:10;}
	.st9{fill:none;stroke:url(#SVGID_6_);stroke-width:2;stroke-miterlimit:10;}
	.st10{fill:url(#SVGID_7_);}
</style>
<g id="Слой_1" class="st0">
	<g>
		<g class="st1">
			<g>
				
					<linearGradient id="SVGID_1_" gradientUnits="userSpaceOnUse" x1="-156.95" y1="218.9" x2="296.05" y2="218.9" gradientTransform="matrix(1 0 0 -1 0 84.3)">
					<stop  offset="0" style="stop-color:#FFFFFF"/>
					<stop  offset="0.9871" style="stop-color:#FF5500"/>
				</linearGradient>
				<path class="st2" d="M-157-153.3h449.5c1.4,0,2.5,1.1,2.5,2.5v31.4c0,1.7-1.4,3.1-3.1,3.1l-88.1,0.5"/>
				<g>
					
						<linearGradient id="SVGID_2_" gradientUnits="userSpaceOnUse" x1="-156.95" y1="200.15" x2="296.05" y2="200.15" gradientTransform="matrix(1 0 0 -1 0 84.3)">
						<stop  offset="0" style="stop-color:#FFFFFF"/>
						<stop  offset="0.9871" style="stop-color:#FF5500"/>
					</linearGradient>
					<polygon class="st3" points="204.9,-119.5 198.5,-115.8 204.9,-112.2 					"/>
				</g>
			</g>
		</g>
		<g class="st1">
			<g>
				<path class="st4" d="M54,28.7v-142.4c0-1.5,1.2-2.6,2.6-2.6H177"/>
				<g>
					<polygon class="st5" points="57.7,27.6 54,34 50.3,27.6 					"/>
				</g>
				<g>
					<polygon class="st5" points="175.9,-112.7 182.3,-116.3 175.9,-120 					"/>
				</g>
			</g>
		</g>
		<g class="st1">
			<g>
				<line class="st4" x1="54" y1="55.7" x2="54" y2="249.7"/>
				<g>
					<polygon class="st5" points="50.3,56.8 54,50.4 57.7,56.8 					"/>
				</g>
				<g>
					<polygon class="st5" points="50.3,248.6 54,255 57.7,248.6 					"/>
				</g>
			</g>
		</g>
		<g class="st1">
			<g>
				<path class="st4" d="M54,277.6v162c0,2.2,1.8,4,4,4h246"/>
				<g>
					<polygon class="st5" points="50.3,278.8 54,272.4 57.7,278.8 					"/>
				</g>
				<g>
					<polygon class="st5" points="302.9,447.4 309.3,443.6 302.9,439.9 					"/>
				</g>
			</g>
		</g>
		<g class="st1">
			<g>
				<path class="st4" d="M326,443.6h243c2.2,0,4-1.8,4-4v-124"/>
				<g>
					<polygon class="st5" points="327.1,447.4 320.8,443.6 327.1,439.9 					"/>
				</g>
				<g>
					<polygon class="st5" points="576.8,316.8 573,310.4 569.3,316.8 					"/>
				</g>
			</g>
		</g>
		<g class="st1">
			<g>
				<line class="st4" x1="573" y1="285.6" x2="573" y2="166.7"/>
				<g>
					<polygon class="st5" points="576.8,284.5 573,291 569.3,284.5 					"/>
				</g>
				<g>
					<polygon class="st5" points="576.8,167.8 573,161.4 569.3,167.8 					"/>
				</g>
			</g>
		</g>
		<g class="st1">
			<g>
				<line class="st4" x1="573" y1="138.7" x2="573" y2="18.7"/>
				<g>
					<polygon class="st5" points="576.8,137.6 573,144 569.3,137.6 					"/>
				</g>
				<g>
					<polygon class="st5" points="576.8,19.8 573,13.4 569.3,19.8 					"/>
				</g>
			</g>
		</g>
		<g class="st1">
			<g>
				<path class="st4" d="M573-8.3v-104.2c0-2.1-1.7-3.8-3.8-3.8H450"/>
				<g>
					<polygon class="st5" points="576.8,-9.4 573,-3 569.3,-9.4 					"/>
				</g>
				<g>
					<polygon class="st5" points="451.1,-120 444.8,-116.3 451.1,-112.7 					"/>
				</g>
			</g>
		</g>
		
			<linearGradient id="SVGID_3_" gradientUnits="userSpaceOnUse" x1="662.7214" y1="115.3215" x2="436.6269" y2="341.4161" gradientTransform="matrix(1 0 0 -1 0 84.3)">
			<stop  offset="0" style="stop-color:#FFFFFF"/>
			<stop  offset="0.9871" style="stop-color:#FF5500"/>
		</linearGradient>
		<path class="st6" d="M423-116.3h-87.4c-2,0-3.6-1.6-3.6-3.6v-29.6c0-2.1,1.7-3.8,3.8-3.8H784"/>
	</g>
	<g class="st1">
		<g>
			<linearGradient id="SVGID_4_" gradientUnits="userSpaceOnUse" x1="3.7" y1="0" x2="3.7" y2="77">
				<stop  offset="0" style="stop-color:#FFFFFF"/>
				<stop  offset="0.9871" style="stop-color:#FF5500"/>
			</linearGradient>
			<line class="st7" x1="3.7" y1="0" x2="3.7" y2="77"/>
			<g>
				<linearGradient id="SVGID_5_" gradientUnits="userSpaceOnUse" x1="3.7" y1="75.4" x2="3.7" y2="83.299">
					<stop  offset="0" style="stop-color:#FFFFFF"/>
					<stop  offset="0.9871" style="stop-color:#FF5500"/>
				</linearGradient>
				<polygon class="st8" points="0,75.9 3.7,82.3 7.4,75.9 				"/>
			</g>
		</g>
	</g>
</g>
<g id="Слой_2">
	<g>
		<g>
			<linearGradient id="SVGID_6_" gradientUnits="userSpaceOnUse" x1="3.7" y1="7.000926e-08" x2="3.7" y2="82.3">
				<stop  offset="0" style="stop-color:#FFFFFF"/>
				<stop  offset="0.9871" style="stop-color:#FF5500"/>
			</linearGradient>
			<line class="st9" x1="3.7" y1="0" x2="3.7" y2="77.1"/>
			<g>
				<linearGradient id="SVGID_7_" gradientUnits="userSpaceOnUse" x1="3.6998" y1="0" x2="3.6998" y2="82.3">
					<stop  offset="0" style="stop-color:#FFFFFF"/>
					<stop  offset="0.9871" style="stop-color:#FF5500"/>
				</linearGradient>
				<polygon class="st10" points="0.1,76.1 3.7,82.3 7.3,76.1 				"/>
			</g>
		</g>
	</g>
</g>
</svg>
