<?xml version="1.0" encoding="utf-8"?>
<!-- Generator: Adobe Illustrator 23.0.3, SVG Export Plug-In . SVG Version: 6.00 Build 0)  -->
<svg version="1.1" id="Слой_1" xmlns="http://www.w3.org/2000/svg" xmlns:xlink="http://www.w3.org/1999/xlink" x="0px" y="0px"
	 viewBox="0 0 941 615" style="enable-background:new 0 0 941 615;" xml:space="preserve">
<style type="text/css">
	.st0{fill:none;stroke:url(#SVGID_1_);stroke-width:2;stroke-miterlimit:10;}
	.st1{fill:url(#SVGID_2_);}
	.st2{fill:none;stroke:#FF5500;stroke-width:2;stroke-miterlimit:10;}
	.st3{fill:#FF5500;}
	.st4{fill:none;stroke:url(#SVGID_3_);stroke-width:2;stroke-miterlimit:10;}
</style>
<image style="display:none;overflow:visible;" width="1058" height="881" xlink:href="Screenshot_1.png"  transform="matrix(1.2259 0 0 1.2259 -165 -235)">
</image>
<g>
	<g>
		<linearGradient id="SVGID_1_" gradientUnits="userSpaceOnUse" x1="0.5" y1="24.2358" x2="453.5" y2="24.2358">
			<stop  offset="0" style="stop-color:#FFFFFF"/>
			<stop  offset="0.9871" style="stop-color:#FF5500"/>
		</linearGradient>
		<path class="st0" d="M0.5,5.5H450c1.4,0,2.5,1.1,2.5,2.5v31.4c0,1.7-1.4,3.1-3.1,3.1L361.3,43"/>
		<g>
			<linearGradient id="SVGID_2_" gradientUnits="userSpaceOnUse" x1="0.5" y1="42.9656" x2="453.5" y2="42.9656">
				<stop  offset="0" style="stop-color:#FFFFFF"/>
				<stop  offset="0.9871" style="stop-color:#FF5500"/>
			</linearGradient>
			<polygon class="st1" points="362.4,39.3 356,43 362.4,46.7 			"/>
		</g>
	</g>
</g>
<g>
	<g>
		<path class="st2" d="M211.5,187.5V45.1c0-1.5,1.2-2.6,2.6-2.6h120.4"/>
		<g>
			<polygon class="st3" points="215.2,186.4 211.5,192.8 207.8,186.4 			"/>
		</g>
		<g>
			<polygon class="st3" points="333.4,46.2 339.8,42.5 333.4,38.8 			"/>
		</g>
	</g>
</g>
<g>
	<g>
		<line class="st2" x1="211.5" y1="214.5" x2="211.5" y2="408.5"/>
		<g>
			<polygon class="st3" points="207.8,215.6 211.5,209.2 215.2,215.6 			"/>
		</g>
		<g>
			<polygon class="st3" points="207.8,407.4 211.5,413.8 215.2,407.4 			"/>
		</g>
	</g>
</g>
<g>
	<g>
		<path class="st2" d="M211.5,436.5v162c0,2.2,1.8,4,4,4h246"/>
		<g>
			<polygon class="st3" points="207.8,437.6 211.5,431.2 215.2,437.6 			"/>
		</g>
		<g>
			<polygon class="st3" points="460.4,606.2 466.8,602.5 460.4,598.8 			"/>
		</g>
	</g>
</g>
<g>
	<g>
		<path class="st2" d="M483.5,602.5h243c2.2,0,4-1.8,4-4v-124"/>
		<g>
			<polygon class="st3" points="484.6,606.2 478.2,602.5 484.6,598.8 			"/>
		</g>
		<g>
			<polygon class="st3" points="734.2,475.6 730.5,469.2 726.8,475.6 			"/>
		</g>
	</g>
</g>
<g>
	<g>
		<line class="st2" x1="730.5" y1="444.5" x2="730.5" y2="325.5"/>
		<g>
			<polygon class="st3" points="734.2,443.4 730.5,449.8 726.8,443.4 			"/>
		</g>
		<g>
			<polygon class="st3" points="734.2,326.6 730.5,320.2 726.8,326.6 			"/>
		</g>
	</g>
</g>
<g>
	<g>
		<line class="st2" x1="730.5" y1="297.5" x2="730.5" y2="177.5"/>
		<g>
			<polygon class="st3" points="734.2,296.4 730.5,302.8 726.8,296.4 			"/>
		</g>
		<g>
			<polygon class="st3" points="734.2,178.6 730.5,172.2 726.8,178.6 			"/>
		</g>
	</g>
</g>
<g>
	<g>
		<path class="st2" d="M730.5,150.5V46.3c0-2.1-1.7-3.8-3.8-3.8H607.5"/>
		<g>
			<polygon class="st3" points="734.2,149.4 730.5,155.8 726.8,149.4 			"/>
		</g>
		<g>
			<polygon class="st3" points="608.6,38.8 602.2,42.5 608.6,46.2 			"/>
		</g>
	</g>
</g>
<linearGradient id="SVGID_3_" gradientUnits="userSpaceOnUse" x1="820.1749" y1="127.8251" x2="594.0884" y2="-98.2614">
	<stop  offset="0" style="stop-color:#FFFFFF"/>
	<stop  offset="0.9871" style="stop-color:#FF5500"/>
</linearGradient>
<path class="st4" d="M580.5,42.5h-87.4c-2,0-3.6-1.6-3.6-3.6V9.3c0-2.1,1.7-3.8,3.8-3.8h448.2"/>
</svg>
