<?xml version="1.0" encoding="utf-8"?>
<!-- Generator: Adobe Illustrator 23.0.3, SVG Export Plug-In . SVG Version: 6.00 Build 0)  -->
<svg version="1.1" id="Слой_1" xmlns="http://www.w3.org/2000/svg" xmlns:xlink="http://www.w3.org/1999/xlink" x="0px" y="0px"
	 viewBox="0 0 83 8" style="enable-background:new 0 0 83 8;" xml:space="preserve">
<style type="text/css">
	.st0{display:none;}
	.st1{display:inline;}
	.st2{fill:none;stroke:url(#SVGID_1_);stroke-width:2;stroke-miterlimit:10;}
	.st3{fill:url(#SVGID_2_);}
	.st4{fill:none;stroke:#FF5500;stroke-width:2;stroke-miterlimit:10;}
	.st5{fill:#FF5500;}
	.st6{display:inline;fill:none;stroke:url(#SVGID_3_);stroke-width:2;stroke-miterlimit:10;}
	.st7{fill:none;stroke:#EBEDF0;stroke-width:2;stroke-miterlimit:10;}
	.st8{fill:#EBEDF0;}
</style>
<image style="display:none;overflow:visible;" width="1058" height="881" xlink:href="Screenshot_1.png"  transform="matrix(1.2259 0 0 1.2259 -285 -431)">
</image>
<g id="Слой_2" class="st0">
	<g class="st1">
		<g>
			<linearGradient id="SVGID_1_" gradientUnits="userSpaceOnUse" x1="-119.5" y1="-171.7642" x2="333.5" y2="-171.7642">
				<stop  offset="0" style="stop-color:#FFFFFF"/>
				<stop  offset="0.9871" style="stop-color:#FF5500"/>
			</linearGradient>
			<path class="st2" d="M-119.5-190.5H330c1.4,0,2.5,1.1,2.5,2.5v31.4c0,1.7-1.4,3.1-3.1,3.1l-88.1,0.5"/>
			<g>
				<linearGradient id="SVGID_2_" gradientUnits="userSpaceOnUse" x1="-119.5" y1="-153.0344" x2="333.5" y2="-153.0344">
					<stop  offset="0" style="stop-color:#FFFFFF"/>
					<stop  offset="0.9871" style="stop-color:#FF5500"/>
				</linearGradient>
				<polygon class="st3" points="242.4,-156.7 236,-153 242.4,-149.3 				"/>
			</g>
		</g>
	</g>
	<g class="st1">
		<g>
			<path class="st4" d="M91.5-8.5v-142.4c0-1.5,1.2-2.6,2.6-2.6h120.4"/>
			<g>
				<polygon class="st5" points="95.2,-9.6 91.5,-3.2 87.8,-9.6 				"/>
			</g>
			<g>
				<polygon class="st5" points="213.4,-149.8 219.8,-153.5 213.4,-157.2 				"/>
			</g>
		</g>
	</g>
	<g class="st1">
		<g>
			<line class="st4" x1="91.5" y1="18.5" x2="91.5" y2="212.5"/>
			<g>
				<polygon class="st5" points="87.8,19.6 91.5,13.2 95.2,19.6 				"/>
			</g>
			<g>
				<polygon class="st5" points="87.8,211.4 91.5,217.8 95.2,211.4 				"/>
			</g>
		</g>
	</g>
	<g class="st1">
		<g>
			<path class="st4" d="M91.5,240.5v162c0,2.2,1.8,4,4,4h246"/>
			<g>
				<polygon class="st5" points="87.8,241.6 91.5,235.2 95.2,241.6 				"/>
			</g>
			<g>
				<polygon class="st5" points="340.4,410.2 346.8,406.5 340.4,402.8 				"/>
			</g>
		</g>
	</g>
	<g class="st1">
		<g>
			<path class="st4" d="M363.5,406.5h243c2.2,0,4-1.8,4-4v-124"/>
			<g>
				<polygon class="st5" points="364.6,410.2 358.2,406.5 364.6,402.8 				"/>
			</g>
			<g>
				<polygon class="st5" points="614.2,279.6 610.5,273.2 606.8,279.6 				"/>
			</g>
		</g>
	</g>
	<g class="st1">
		<g>
			<line class="st4" x1="610.5" y1="248.5" x2="610.5" y2="129.5"/>
			<g>
				<polygon class="st5" points="614.2,247.4 610.5,253.8 606.8,247.4 				"/>
			</g>
			<g>
				<polygon class="st5" points="614.2,130.6 610.5,124.2 606.8,130.6 				"/>
			</g>
		</g>
	</g>
	<g class="st1">
		<g>
			<line class="st4" x1="610.5" y1="101.5" x2="610.5" y2="-18.5"/>
			<g>
				<polygon class="st5" points="614.2,100.4 610.5,106.8 606.8,100.4 				"/>
			</g>
			<g>
				<polygon class="st5" points="614.2,-17.4 610.5,-23.8 606.8,-17.4 				"/>
			</g>
		</g>
	</g>
	<g class="st1">
		<g>
			<path class="st4" d="M610.5-45.5v-104.2c0-2.1-1.7-3.8-3.8-3.8H487.5"/>
			<g>
				<polygon class="st5" points="614.2,-46.6 610.5,-40.2 606.8,-46.6 				"/>
			</g>
			<g>
				<polygon class="st5" points="488.6,-157.2 482.2,-153.5 488.6,-149.8 				"/>
			</g>
		</g>
	</g>
	<linearGradient id="SVGID_3_" gradientUnits="userSpaceOnUse" x1="700.1749" y1="-68.1749" x2="474.0885" y2="-294.2614">
		<stop  offset="0" style="stop-color:#FFFFFF"/>
		<stop  offset="0.9871" style="stop-color:#FF5500"/>
	</linearGradient>
	<path class="st6" d="M460.5-153.5h-87.4c-2,0-3.6-1.6-3.6-3.6v-29.6c0-2.1,1.7-3.8,3.8-3.8h448.2"/>
</g>
<g>
	<g>
		<line class="st7" x1="0" y1="4" x2="77" y2="4"/>
		<g>
			<polygon class="st8" points="75.9,7.7 82.3,4 75.9,0.3 			"/>
		</g>
	</g>
</g>
</svg>
