<?xml version="1.0" encoding="utf-8"?>
<!-- Generator: Adobe Illustrator 23.0.3, SVG Export Plug-In . SVG Version: 6.00 Build 0)  -->
<svg version="1.1" id="Capa_1" xmlns="http://www.w3.org/2000/svg" xmlns:xlink="http://www.w3.org/1999/xlink" x="0px" y="0px"
	 viewBox="0 0 512 512" style="enable-background:new 0 0 512 512;" xml:space="preserve">
<g>
	<g>
		<path d="M256.2,0C114.8-0.1,0.1,114.4,0,255.8S114.4,511.9,255.8,512c141.4-0.1,256-114.6,256.2-256C512,114.7,397.5,0.1,256.2,0z
			 M255.8,469.4c-117.9,0-213.4-95.5-213.4-213.4S137.9,42.6,255.8,42.6c117.8,0.1,213.3,95.6,213.4,213.4
			C469.2,373.9,373.7,469.4,255.8,469.4z"/>
	</g>
</g>
<g>
	<g>
		<path d="M311.1,211.7c10.3-16.7,9-38.1-3.2-53.5c-18-24.2-54.7-16.8-80.4-5.2l-21.8-39.3l-24.3,13.5l21.6,39l-16.3,9l-21.6-39
			l-24.3,13.5l21.6,39l-48.8,27.1l14,25.1l18.2-10.1c8.1-4.5,13.5-4.3,17.1,2.3l59.9,107.9c5,9,2,14.3-2.8,17l-18.5,10.3l14.2,25.6
			l47.1-26.2l22.1,39.8l24.4-13.6l-22.1-39.8l16.3-9l22.1,39.8l23.7-13.2l-22.1-39.8l5.2-2.9c49.9-27.7,52.9-61.4,34.5-94.6
			C355.7,215,332.7,205.7,311.1,211.7z M201.6,201.8l17.3-9.6c12.1-6.7,37.2-17.9,48.2,1.8c8,12.4,4.9,28.9-7,37.6l-32,17.8
			C228,249.4,201.6,201.8,201.6,201.8z M297.7,311.6l-0.1-0.2l-26.8,14.9l-28.9-52l31.2-17.3c7.3-4,36-16.8,46.8,2.6
			S323.7,297.2,297.7,311.6z"/>
	</g>
</g>
</svg>
