<?xml version="1.0" encoding="utf-8"?>
<!-- Generator: Adobe Illustrator 23.0.3, SVG Export Plug-In . SVG Version: 6.00 Build 0)  -->
<svg version="1.1" id="Capa_1" xmlns="http://www.w3.org/2000/svg" xmlns:xlink="http://www.w3.org/1999/xlink" x="0px" y="0px"
	 viewBox="0 0 512 512" style="enable-background:new 0 0 512 512;" xml:space="preserve">
<g>
	<g>
		<path d="M256.2,0C114.8-0.1,0.1,114.4,0,255.8S114.4,511.9,255.8,512c141.4-0.1,256-114.6,256.2-256C512,114.7,397.5,0.1,256.2,0z
			 M255.8,469.4c-117.9,0-213.4-95.5-213.4-213.4S137.9,42.6,255.8,42.6c117.8,0.1,213.3,95.6,213.4,213.4
			C469.2,373.9,373.7,469.4,255.8,469.4z"/>
	</g>
</g>
<path id="D" d="M420.4,169.8c-0.3-7.8-1.9-15.7-4.6-22.5c-2.4-7.1-6.7-12.6-11.6-15.4c-5.1-3.8-10.8-5.6-16.4-5.3H175.1L159.8,194
	h192.7l-30.4,138H129.4l-15.2,67.5h213.7c6.4-0.2,12.7-2,18.6-5.3c6-5.1,12.8-10.1,18.6-17.2c5.6-6.6,10.8-14.2,15.2-22.5
	c3.8-8.3,6.8-16.9,9.4-26L418,197.3C420.6,188.7,421.4,179.1,420.4,169.8L420.4,169.8z"/>
<path id="_-" d="M235.8,231.7H122.4l-15.2,62.4h114.5L235.8,231.7z"/>
</svg>
