<?xml version="1.0" encoding="utf-8"?>
<!-- Generator: Adobe Illustrator 23.0.3, SVG Export Plug-In . SVG Version: 6.00 Build 0)  -->
<svg version="1.1" id="Capa_1" xmlns="http://www.w3.org/2000/svg" xmlns:xlink="http://www.w3.org/1999/xlink" x="0px" y="0px"
	 viewBox="0 0 512 512" style="enable-background:new 0 0 512 512;" xml:space="preserve">
<style type="text/css">
	.st0{fill:none;stroke:#000000;stroke-width:14;stroke-miterlimit:10;}
</style>
<g>
	<g>
		<path d="M256.2,0C114.8-0.1,0.1,114.4,0,255.8S114.4,511.9,255.8,512c141.4-0.1,256-114.6,256.2-256C512,114.7,397.5,0.1,256.2,0z
			 M255.8,469.4c-117.9,0-213.4-95.5-213.4-213.4S137.9,42.6,255.8,42.6c117.8,0.1,213.3,95.6,213.4,213.4
			C469.2,373.9,373.7,469.4,255.8,469.4z"/>
	</g>
</g>
<path class="st0" d="M129.4,362.2L190.3,152c1.3-4.4,3.5-8.5,6.5-12L251,76.9c3.1-3.6,8.6-3.5,11.6,0l55.9,65.1
	c1.9,2.2,3.3,4.8,4,7.5l59.6,210.7c1.1,3.9-0.5,8-4,10.1L261,440.5c-3.1,1.8-6.9,1.8-10,0l-118.9-71.3
	C129.7,367.8,128.6,364.9,129.4,362.2z"/>
<path class="st0" d="M379.5,359.5L256.9,160.2L132.6,359.5c-2,3.2,0.3,7.2,4,7.2h238.9C379.2,366.8,381.5,362.7,379.5,359.5z"/>
<line class="st0" x1="256.9" y1="160.2" x2="256.9" y2="70.2"/>
<path class="st0" d="M192.2,145.3"/>
<path class="st0" d="M321.4,145.3l-62.9,287c-0.6,2.6-4.3,2.6-4.9,0l-61.4-287"/>
</svg>
