<?xml version="1.0" encoding="utf-8"?>
<!-- Generator: Adobe Illustrator 23.0.3, SVG Export Plug-In . SVG Version: 6.00 Build 0)  -->
<svg version="1.1" id="Capa_1" xmlns="http://www.w3.org/2000/svg" xmlns:xlink="http://www.w3.org/1999/xlink" x="0px" y="0px"
	 viewBox="0 0 512 512" style="enable-background:new 0 0 512 512;" xml:space="preserve">
<style type="text/css">
	.st0{display:none;}
	.st1{display:inline;}
	.st2{fill:none;stroke:#000000;stroke-width:27;stroke-miterlimit:10;}
</style>
<g>
	<g>
		<path d="M256.2,0C114.8-0.1,0.1,114.4,0,255.8S114.4,511.9,255.8,512c141.4-0.1,256-114.6,256.2-256C512,114.7,397.5,0.1,256.2,0z
			 M255.8,469.4c-117.9,0-213.4-95.5-213.4-213.4S137.9,42.6,255.8,42.6c117.8,0.1,213.3,95.6,213.4,213.4
			C469.2,373.9,373.7,469.4,255.8,469.4z"/>
	</g>
</g>
<g class="st0">
	<g class="st1">
		<path d="M325,243.5c17.1-9.6,26.4-29,23.2-48.3c-4-29.9-39.6-41.2-67.8-43.6v-45h-27.7v44.6H234v-44.6h-27.7v44.6h-55.9v28.7h20.8
			c9.3,0,13.9,2.8,13.9,10.3v123.4c0,10.3-5.2,13.5-10.7,13.5h-21.2v29.3h53.9V402H235v-45.6h18.6V402h27.1v-45.6h5.9
			c57.1,0,76.1-27.9,76.1-66C362.3,268,346.8,248.7,325,243.5z M234,181.7h19.8c13.9,0,41.2,2.4,41.2,25c1,14.7-9.7,27.7-24.4,29.5
			H234V181.7z M264.7,324.4v-0.2H234v-59.4h35.7c8.3,0,39.6,2.8,39.6,25S294.4,324.4,264.7,324.4z"/>
	</g>
</g>
<path d="M144.2,266.7l111.6,161.2l111.6-161.2l-111.6-186L144.2,266.7z M255.8,371.7l-47-67.9l47,20.9l47-20.9L255.8,371.7z
	 M255.8,289.7l-69.6-30.9l69.6-115.9l69.6,115.9L255.8,289.7z"/>
<polyline class="st2" points="163.7,269.1 255.6,224.8 349.5,269.1 "/>
</svg>
