<svg xmlns="http://www.w3.org/2000/svg" xmlns:xlink="http://www.w3.org/1999/xlink" width="28" height="20" viewBox="0 0 28 20">
    <defs>
        <path id="a" d="M1.282 0h25.436c.446 0 .607.046.77.134.163.087.291.215.378.378.088.163.134.324.134.77v17.436c0 .446-.046.607-.134.77a.909.909 0 0 1-.378.378c-.163.088-.324.134-.77.134H1.282c-.446 0-.607-.046-.77-.134a.909.909 0 0 1-.378-.378c-.088-.163-.134-.324-.134-.77V1.282C0 .836.046.675.134.512A.909.909 0 0 1 .512.134C.675.046.836 0 1.282 0z"/>
    </defs>
    <g fill="none" fill-rule="evenodd">
        <mask id="b" fill="#fff">
            <use xlink:href="#a"/>
        </mask>
        <use fill="#FFF" xlink:href="#a"/>
        <path fill="#043CAE" d="M0 0h28v20H0z" mask="url(#b)"/>
        <path fill="#FFD429" d="M14 4l-.943.276.276-.943-.276-.942.943.276.943-.276-.276.942.276.943L14 4zm0 13.333l-.943.276.276-.942-.276-.943L14 16l.943-.276-.276.943.276.942-.943-.276zm6.667-6.666l-.943.276L20 10l-.276-.943.943.276.942-.276-.276.943.276.943-.942-.276zm-13.334 0l-.942.276.276-.943-.276-.943.942.276.943-.276L8 10l.276.943-.943-.276zm12.44-3.334l-.942.276.276-.942-.276-.943.943.276.942-.276-.276.943.276.942-.942-.276zM8.227 14l-.942.276.276-.943-.276-.942.942.276.943-.276-.276.942.276.943L8.226 14zm9.107-9.107l-.942.276.276-.943-.276-.942.942.276.943-.276-.276.942.276.943-.943-.276zM10.667 16.44l-.943.276.276-.942-.276-.943.943.276.942-.276-.276.943.276.942-.942-.276zM19.774 14l-.943.276.276-.943-.276-.942.943.276.942-.276-.276.942.276.943-.942-.276zM8.226 7.333l-.942.276.276-.942-.276-.943.942.276.943-.276-.276.943.276.942-.943-.276zm9.107 9.107l-.942.276.276-.942-.276-.943.942.276.943-.276-.276.943.276.942-.943-.276zM10.667 4.893l-.943.276.276-.943-.276-.942.943.276.942-.276-.276.942.276.943-.942-.276z" mask="url(#b)"/>
    </g>
</svg>
