<svg height="384pt" viewBox="0 0 384 384" width="384pt" xmlns="http://www.w3.org/2000/svg"><path d="m192 384c105.863281 0 192-86.128906 192-192s-86.136719-192-192-192-192 86.128906-192 192 86.136719 192 192 192zm0-352c88.222656 0 160 71.777344 160 160s-71.777344 160-160 160-160-71.777344-160-160 71.777344-160 160-160zm0 0"/><path d="m119.734375 256h136.265625v-32h-87.734375l13.710937-32h58.023438v-32h-44.304688l17.3125-40.398438-29.414062-12.609374-22.714844 53.007812h-48.878906v32h35.160156zm0 0"/></svg>