<svg height="384pt" viewBox="0 0 384 384" width="384pt" xmlns="http://www.w3.org/2000/svg"><path d="m192 0c-105.863281 0-192 86.128906-192 192s86.136719 192 192 192 192-86.128906 192-192-86.136719-192-192-192zm0 352c-88.222656 0-160-71.777344-160-160s71.777344-160 160-160 160 71.777344 160 160-71.777344 160-160 160zm0 0"/><path d="m212.960938 210.304688-34.296876-82.304688h-29.328124l-50.257813 120.617188 29.539063 12.304687 35.382812-84.921875 33.335938 80h28.550781l59.585937-119.160156-28.632812-14.304688zm0 0"/></svg>