<?xml version="1.0" encoding="utf-8"?>
<!-- Generator: Adobe Illustrator 23.0.3, SVG Export Plug-In . SVG Version: 6.00 Build 0)  -->
<svg version="1.1" id="Capa_1" xmlns="http://www.w3.org/2000/svg" xmlns:xlink="http://www.w3.org/1999/xlink" x="0px" y="0px"
	 viewBox="0 0 512 512" style="enable-background:new 0 0 512 512;" xml:space="preserve">
<style type="text/css">
	.st0{display:none;}
	.st1{display:inline;}
</style>
<g>
	<g>
		<path d="M256.2,0C114.8-0.1,0.1,114.4,0,255.8S114.4,511.9,255.8,512c141.4-0.1,256-114.6,256.2-256C512,114.7,397.5,0.1,256.2,0z
			 M255.8,469.4c-117.9,0-213.4-95.5-213.4-213.4S137.9,42.6,255.8,42.6c117.8,0.1,213.3,95.6,213.4,213.4
			C469.2,373.9,373.7,469.4,255.8,469.4z"/>
	</g>
</g>
<g class="st0">
	<g class="st1">
		<path d="M325,243.5c17.1-9.6,26.4-29,23.2-48.3c-4-29.9-39.6-41.2-67.8-43.6v-45h-27.7v44.6H234v-44.6h-27.7v44.6h-55.9v28.7h20.8
			c9.3,0,13.9,2.8,13.9,10.3v123.4c0,10.3-5.2,13.5-10.7,13.5h-21.2v29.3h53.9V402H235v-45.6h18.6V402h27.1v-45.6h5.9
			c57.1,0,76.1-27.9,76.1-66C362.3,268,346.8,248.7,325,243.5z M234,181.7h19.8c13.9,0,41.2,2.4,41.2,25c1,14.7-9.7,27.7-24.4,29.5
			H234C234,236.2,234,181.7,234,181.7z M264.7,324.4v-0.2H234v-59.4h35.7c8.3,0,39.6,2.8,39.6,25S294.4,324.4,264.7,324.4z"/>
	</g>
</g>
<polygon class="st0" points="117.6,219.4 275,219.4 281,184.9 125.5,184.9 "/>
<path class="st0" d="M396.6,167.4c-1.4-9.8-6.3-18.7-13.8-25.2c-14.4-12.5-31.6-21.2-50.2-25.4c-9.4-2.1-19-3.2-28.7-3.2H170.1
	l-56.5,285h51.3l20.5-104.5h92.2c5.7,0,11.4-0.4,17.1-1.1c15.5-2,30.6-6.6,44.6-13.7h0c17.9-9.1,33.3-22.4,44.9-38.8
	c5.5-7.8,9.4-16.7,11.2-26.1C398.5,198.8,398.9,182.9,396.6,167.4z M342,205.8L342,205.8c-3.2,10.4-9.4,19.7-17.8,26.6h0
	c-5.5,4.5-11.8,7.8-18.7,9.7c-7.7,2.1-15.6,3.1-23.6,3.1h-86.6l16.4-82.6l95.7,2.4c6.3,0.2,12.6,1.3,18.6,3.3
	c6.8,2.3,12.2,7.4,14.9,14C344,189.8,344.4,198.1,342,205.8z"/>
<path d="M136.8,117.2c0,0,0,95,0,161.2s56.2,143.7,147.5,131.2c0,0,48.7-58.7,8.7-140S186.8,162.1,186.8,162.1
	S314.6,213.9,333,306.5c7.8,39.4,0.2,77.6-7.6,102c0,0,78.9-43.9,63.9-141.4C374.3,169.6,219.3,102.2,136.8,117.2z"/>
</svg>
