<svg xmlns="http://www.w3.org/2000/svg" xmlns:xlink="http://www.w3.org/1999/xlink" width="24" height="24" viewBox="0 0 24 24">
    <defs>
        <path id="a" d="M12 0c6.627 0 12 5.373 12 12s-5.373 12-12 12S0 18.627 0 12 5.373 0 12 0zm0 .974a10.99 10.99 0 0 0-7.796 3.23A10.99 10.99 0 0 0 .974 12a10.99 10.99 0 0 0 3.23 7.796A10.99 10.99 0 0 0 12 23.026a10.99 10.99 0 0 0 7.796-3.23A10.99 10.99 0 0 0 23.026 12a10.99 10.99 0 0 0-3.23-7.796A10.99 10.99 0 0 0 12 .974zm2.66 12h-4.367a.49.49 0 1 1 0-.98h4.367c1.197 0 2.17-.974 2.17-2.17 0-1.197-.973-2.17-2.17-2.17H6.68a.49.49 0 1 1 0-.981h7.98a3.154 3.154 0 0 1 3.15 3.15 3.154 3.154 0 0 1-3.15 3.151zm-6.53 4.353a.49.49 0 0 1-.49-.49V9.823c0-.27.22-.49.49-.49h6.772a.49.49 0 1 1 0 .98H8.621v6.524c0 .27-.22.49-.49.49zm7.982 0a.49.49 0 0 1-.417-.23l-1.209-1.935a.49.49 0 0 1 .832-.52l1.21 1.935a.49.49 0 0 1-.416.75z"/>
    </defs>
    <g fill="none" fill-rule="evenodd">
        <mask id="b" fill="#fff">
            <use xlink:href="#a"/>
        </mask>
        <g fill="#FF0037" mask="url(#b)">
            <path d="M0 0h24v24H0z"/>
        </g>
    </g>
</svg>
