<svg xmlns="http://www.w3.org/2000/svg" xmlns:xlink="http://www.w3.org/1999/xlink" width="28" height="20" viewBox="0 0 28 20">
    <defs>
        <path id="a" d="M1.282 0h25.436c.446 0 .607.046.77.134.163.087.291.215.378.378.088.163.134.324.134.77v17.436c0 .446-.046.607-.134.77a.909.909 0 0 1-.378.378c-.163.088-.324.134-.77.134H1.282c-.446 0-.607-.046-.77-.134a.909.909 0 0 1-.378-.378c-.088-.163-.134-.324-.134-.77V1.282C0 .836.046.675.134.512A.909.909 0 0 1 .512.134C.675.046.836 0 1.282 0z"/>
        <linearGradient id="e" x1="50%" x2="50%" y1="0%" y2="100%">
            <stop offset="0%" stop-color="#FFF"/>
            <stop offset="100%" stop-color="#F0F0F0"/>
        </linearGradient>
        <path id="d" d="M2 2.667a.667.667 0 1 1 0-1.334.667.667 0 0 1 0 1.334zm2.667 0a.667.667 0 1 1 0-1.334.667.667 0 0 1 0 1.334zm2.666 0a.667.667 0 1 1 0-1.334.667.667 0 0 1 0 1.334zm2.667 0a.667.667 0 1 1 0-1.334.667.667 0 0 1 0 1.334zM3.333 4a.667.667 0 1 1 0-1.333.667.667 0 0 1 0 1.333zM6 4a.667.667 0 1 1 0-1.333A.667.667 0 0 1 6 4zm2.667 0a.667.667 0 1 1 0-1.333.667.667 0 0 1 0 1.333zM10 5.333A.667.667 0 1 1 10 4a.667.667 0 0 1 0 1.333zm-2.667 0a.667.667 0 1 1 0-1.333.667.667 0 0 1 0 1.333zm-2.666 0a.667.667 0 1 1 0-1.333.667.667 0 0 1 0 1.333zM2 5.333A.667.667 0 1 1 2 4a.667.667 0 0 1 0 1.333zm1.333 1.334a.667.667 0 1 1 0-1.334.667.667 0 0 1 0 1.334zm2.667 0a.667.667 0 1 1 0-1.334.667.667 0 0 1 0 1.334zm2.667 0a.667.667 0 1 1 0-1.334.667.667 0 0 1 0 1.334zM10 8a.667.667 0 1 1 0-1.333A.667.667 0 0 1 10 8zM7.333 8a.667.667 0 1 1 0-1.333.667.667 0 0 1 0 1.333zM4.667 8a.667.667 0 1 1 0-1.333.667.667 0 0 1 0 1.333zM2 8a.667.667 0 1 1 0-1.333A.667.667 0 0 1 2 8z"/>
        <filter id="c" width="110.7%" height="130%" x="-5.4%" y="-7.5%" filterUnits="objectBoundingBox">
            <feOffset dy="1" in="SourceAlpha" result="shadowOffsetOuter1"/>
            <feColorMatrix in="shadowOffsetOuter1" values="0 0 0 0 0 0 0 0 0 0 0 0 0 0 0 0 0 0 0.06 0"/>
        </filter>
    </defs>
    <g fill="none" fill-rule="evenodd">
        <mask id="b" fill="#fff">
            <use xlink:href="#a"/>
        </mask>
        <use fill="#FFF" xlink:href="#a"/>
        <path fill="#D02F44" d="M0 0h28v1.333H0V0zm0 2.667h28V4H0V2.667zm0 2.666h28v1.334H0V5.333zM0 8h28v1.333H0V8zm0 2.667h28V12H0v-1.333zm0 2.666h28v1.334H0v-1.334zM0 16h28v1.333H0V16zm0 2.667h28V20H0v-1.333z" mask="url(#b)"/>
        <path fill="#46467F" d="M0 0h12v9.333H0z" mask="url(#b)"/>
        <g mask="url(#b)">
            <use fill="#000" filter="url(#c)" xlink:href="#d"/>
            <use fill="url(#e)" xlink:href="#d"/>
        </g>
    </g>
</svg>
