<?xml version="1.0" encoding="utf-8"?>
<!-- Generator: Adobe Illustrator 23.0.3, SVG Export Plug-In . SVG Version: 6.00 Build 0)  -->
<svg version="1.1" id="Capa_1" xmlns="http://www.w3.org/2000/svg" xmlns:xlink="http://www.w3.org/1999/xlink" x="0px" y="0px"
	 viewBox="0 0 512 512" style="enable-background:new 0 0 512 512;" xml:space="preserve">
<style type="text/css">
	.st0{fill:none;stroke:#000000;stroke-width:27;stroke-miterlimit:10;}
</style>
<g>
	<g>
		<path d="M256.2,0C114.8-0.1,0.1,114.4,0,255.8S114.4,511.9,255.8,512c141.4-0.1,256-114.6,256.2-256C512,114.7,397.5,0.1,256.2,0z
			 M255.8,469.4c-117.9,0-213.4-95.5-213.4-213.4S137.9,42.6,255.8,42.6c117.8,0.1,213.3,95.6,213.4,213.4
			C469.2,373.9,373.7,469.4,255.8,469.4z"/>
	</g>
</g>
<path class="st0" d="M322.9,186.7l-2.1-7.2c-2-6.8-5.6-13.2-10.6-18.2c0,0-0.1-0.1-0.1-0.1v0c-10.8-10.6-24.7-17.3-39.6-19.2h0
	c-16-2.1-32.3,0.1-47.1,6.4l0,0c-11.8,4.9-21.7,13.5-28.3,24.5l0,0c-8.8,14.7-12.9,31.9-11.6,49v0c0.3,3.3-3.3,5.4-6.1,3.7l-10-6.3
	l-8.2,1.6c-12.9,2.5-25.5,6.5-37.5,12l0,0c-13.4,6.2-23.3,17.9-27.1,32.2l0,0c-4.7,17.7-3.7,36.4,2.8,53.5l0,0
	c6.9,17.9,19.8,32.9,36.6,42.2l0,0c12.1,6.7,25.6,10.2,39.4,10.2h113l59.1-1.5c17.6-0.4,34.8-5.9,49.5-15.7l0,0
	c13.4-8.9,22.3-23.1,24.4-39.1v0c2.6-19.4-1.1-39.1-10.8-56.1l0,0c-6.7-11.8-16.6-21.5-28.7-27.7l0,0c-14.2-7.4-30.6-9.9-46.4-7h0
	c-16.7,3.1-31.9,11.6-43.2,24.1l0,0c-6.9,7.7-11.3,17.3-12.6,27.5l-1,8.3c-1,8.4-8.2,14.7-16.6,14.7h-23.9"/>
<path d="M199.4,250.9c-24.1,0-43.7,19.6-43.7,43.7c0,24.1,19.6,43.7,43.7,43.7s43.7-19.6,43.7-43.7
	C243.2,270.5,223.6,250.9,199.4,250.9z M197.6,312.4c-10.6,0-19.1-8.6-19.1-19.1c0-10.6,8.6-19.1,19.1-19.1
	c10.6,0,19.1,8.6,19.1,19.1C216.7,303.9,208.2,312.4,197.6,312.4z"/>
</svg>
