<?xml version="1.0" encoding="utf-8"?>
<!-- Generator: Adobe Illustrator 23.0.3, SVG Export Plug-In . SVG Version: 6.00 Build 0)  -->
<svg version="1.1" id="Capa_1" xmlns="http://www.w3.org/2000/svg" xmlns:xlink="http://www.w3.org/1999/xlink" x="0px" y="0px"
	 viewBox="0 0 512 512" style="enable-background:new 0 0 512 512;" xml:space="preserve">
<g>
	<g>
		<path d="M256.2,0C114.8-0.1,0.1,114.4,0,255.8S114.4,511.9,255.8,512c141.4-0.1,256-114.6,256.2-256C512,114.7,397.5,0.1,256.2,0z
			 M255.8,469.4c-117.9,0-213.4-95.5-213.4-213.4S137.9,42.6,255.8,42.6c117.8,0.1,213.3,95.6,213.4,213.4
			C469.2,373.9,373.7,469.4,255.8,469.4z"/>
	</g>
</g>
<path d="M102.7,129.7h44.7l69.8,70.3c21.4,21.5,56.1,21.6,77.6,0.2l70.5-70.5h44.1l-91.8,91.5c-34,33.9-89.1,33.9-123.1,0
	L102.7,129.7z"/>
<path d="M102.7,384.9h44.7l69.8-70.3c21.4-21.5,56.1-21.6,77.6-0.2l70.5,70.5h44.1l-91.8-91.5c-34-33.9-89.1-33.9-123.1,0
	L102.7,384.9z"/>
</svg>
